<?xml version="1.0" encoding="utf-8"?>
<!-- Generator: Adobe Illustrator 25.4.1, SVG Export Plug-In . SVG Version: 6.00 Build 0)  -->
<svg version="1.1" id="Calque_1" xmlns="http://www.w3.org/2000/svg" xmlns:xlink="http://www.w3.org/1999/xlink" x="0px" y="0px"
	 viewBox="0 0 24 24" style="enable-background:new 0 0 24 24;" xml:space="preserve">
<style type="text/css">
	.st0{fill:#FFFFFF;}
</style>
<path class="st0" d="M17.9,18.2c-0.3,0-0.6-0.1-0.8-0.3c-0.4-0.4-0.4-1.1,0-1.5l4.2-4.2l-4.2-4.2c-0.4-0.4-0.4-1.1,0-1.5
	c0.4-0.4,1.1-0.4,1.5,0l5,5c0.4,0.4,0.4,1.1,0,1.5l-5,5C18.4,18.1,18.2,18.2,17.9,18.2z"/>
<path class="st0" d="M6.1,18.2c-0.3,0-0.6-0.1-0.8-0.3l-5-5c-0.4-0.4-0.4-1.1,0-1.5l5-5c0.4-0.4,1.1-0.4,1.5,0
	c0.4,0.4,0.4,1.1,0,1.5l-4.2,4.2l4.2,4.2c0.4,0.4,0.4,1.1,0,1.5C6.7,18.1,6.4,18.2,6.1,18.2z"/>
<path class="st0" d="M10,20c-0.1,0-0.2,0-0.3,0c-0.6-0.2-0.9-0.8-0.7-1.4l4.2-13.9c0.2-0.6,0.8-0.9,1.4-0.7c0.6,0.2,0.9,0.8,0.7,1.4
	l-4.2,13.9C10.9,19.7,10.5,20,10,20z"/>
</svg>
