<?xml version="1.0" encoding="utf-8"?>
<!-- Generator: Adobe Illustrator 25.4.1, SVG Export Plug-In . SVG Version: 6.00 Build 0)  -->
<svg version="1.1" id="Calque_1" xmlns="http://www.w3.org/2000/svg" xmlns:xlink="http://www.w3.org/1999/xlink" x="0px" y="0px"
	 viewBox="0 0 24 24" style="enable-background:new 0 0 24 24;" xml:space="preserve">
<style type="text/css">
	.st0{fill:#FFFFFF;}
</style>
<g>
	<path class="st0" d="M23,19h-8v-2c0-0.6-0.4-1-1-1s-1,0.4-1,1v6c0,0.6,0.4,1,1,1s1-0.4,1-1v-2h8c0.6,0,1-0.4,1-1S23.6,19,23,19z"/>
	<path class="st0" d="M10,19H1c-0.6,0-1,0.4-1,1s0.4,1,1,1h9c0.6,0,1-0.4,1-1S10.6,19,10,19z"/>
	<path class="st0" d="M23,11H12c-0.6,0-1,0.4-1,1s0.4,1,1,1h11c0.6,0,1-0.4,1-1S23.6,11,23,11z"/>
	<path class="st0" d="M1,13h6v2c0,0.6,0.4,1,1,1s1-0.4,1-1V9c0-0.6-0.4-1-1-1S7,8.4,7,9v2H1c-0.6,0-1,0.4-1,1S0.4,13,1,13z"/>
	<path class="st0" d="M1,5h11c0.6,0,1-0.4,1-1s-0.4-1-1-1H1C0.4,3,0,3.4,0,4S0.4,5,1,5z"/>
	<path class="st0" d="M16,8c0.6,0,1-0.4,1-1V5h6c0.6,0,1-0.4,1-1s-0.4-1-1-1h-6V1c0-0.6-0.4-1-1-1s-1,0.4-1,1v6C15,7.6,15.4,8,16,8z
		"/>
</g>
</svg>
